<?xml version="1.0" encoding="UTF-8"?>
<svg id="Calque_1" data-name="Calque 1" xmlns="http://www.w3.org/2000/svg" viewBox="0 0 1920 1080">
  <defs>
    <style>
      .cls-1, .cls-2 {
        opacity: .3;
      }

      .cls-2, .cls-3 {
        fill: none;
        stroke: #1a1a1a;
        stroke-miterlimit: 10;
        stroke-width: .75px;
      }
    </style>
  </defs>
  <g class="cls-1">
    <line class="cls-3" x1="20" x2="20" y2="1080"/>
    <line class="cls-3" x1="60" x2="60" y2="1080"/>
    <line class="cls-3" x1="100" x2="100" y2="1080"/>
    <line class="cls-3" x1="140" x2="140" y2="1080"/>
    <line class="cls-3" x1="180" x2="180" y2="1080"/>
    <line class="cls-3" x1="220" x2="220" y2="1080"/>
    <line class="cls-3" x1="260" x2="260" y2="1080"/>
    <line class="cls-3" x1="300" x2="300" y2="1080"/>
    <line class="cls-3" x1="340" x2="340" y2="1080"/>
    <line class="cls-3" x1="380" x2="380" y2="1080"/>
    <line class="cls-3" x1="420" x2="420" y2="1080"/>
    <line class="cls-3" x1="460" x2="460" y2="1080"/>
    <line class="cls-3" x1="500" x2="500" y2="1080"/>
    <line class="cls-3" x1="540" x2="540" y2="1080"/>
    <line class="cls-3" x1="580" x2="580" y2="1080"/>
    <line class="cls-3" x1="620" x2="620" y2="1080"/>
    <line class="cls-3" x1="660" x2="660" y2="1080"/>
    <line class="cls-3" x1="700" x2="700" y2="1080"/>
    <line class="cls-3" x1="740" x2="740" y2="1080"/>
    <line class="cls-3" x1="780" x2="780" y2="1080"/>
    <line class="cls-3" x1="820" x2="820" y2="1080"/>
    <line class="cls-3" x1="860" x2="860" y2="1080"/>
    <line class="cls-3" x1="900" x2="900" y2="1080"/>
    <line class="cls-3" x1="940" x2="940" y2="1080"/>
    <line class="cls-3" x1="980" x2="980" y2="1080"/>
    <line class="cls-3" x1="1020" x2="1020" y2="1080"/>
    <line class="cls-3" x1="1060" x2="1060" y2="1080"/>
    <line class="cls-3" x1="1100" x2="1100" y2="1080"/>
    <line class="cls-3" x1="1140" x2="1140" y2="1080"/>
    <line class="cls-3" x1="1180" x2="1180" y2="1080"/>
    <line class="cls-3" x1="1220" x2="1220" y2="1080"/>
    <line class="cls-3" x1="1260" x2="1260" y2="1080"/>
    <line class="cls-3" x1="1300" x2="1300" y2="1080"/>
    <line class="cls-3" x1="1340" x2="1340" y2="1080"/>
    <line class="cls-3" x1="1380" x2="1380" y2="1080"/>
    <line class="cls-3" x1="1420" x2="1420" y2="1080"/>
    <line class="cls-3" x1="1460" x2="1460" y2="1080"/>
    <line class="cls-3" x1="1500" x2="1500" y2="1080"/>
    <line class="cls-3" x1="1540" x2="1540" y2="1080"/>
    <line class="cls-3" x1="1580" x2="1580" y2="1080"/>
    <line class="cls-3" x1="1620" x2="1620" y2="1080"/>
    <line class="cls-3" x1="1660" x2="1660" y2="1080"/>
    <line class="cls-3" x1="1700" x2="1700" y2="1080"/>
    <line class="cls-3" x1="1740" x2="1740" y2="1080"/>
    <line class="cls-3" x1="1780" x2="1780" y2="1080"/>
    <line class="cls-3" x1="1820" x2="1820" y2="1080"/>
    <line class="cls-3" x1="1860" x2="1860" y2="1080"/>
    <line class="cls-3" x1="1900" x2="1900" y2="1080"/>
  </g>
  <line class="cls-2" x2="1920"/>
  <line class="cls-2" y1="40" x2="1920" y2="40"/>
  <line class="cls-2" y1="80" x2="1920" y2="80"/>
  <line class="cls-2" y1="120" x2="1920" y2="120"/>
  <line class="cls-2" y1="160" x2="1920" y2="160"/>
  <line class="cls-2" y1="200" x2="1920" y2="200"/>
  <line class="cls-2" y1="240" x2="1920" y2="240"/>
  <line class="cls-2" y1="280" x2="1920" y2="280"/>
  <line class="cls-2" y1="320" x2="1920" y2="320"/>
  <line class="cls-2" y1="360" x2="1920" y2="360"/>
  <line class="cls-2" y1="400" x2="1920" y2="400"/>
  <line class="cls-2" y1="440" x2="1920" y2="440"/>
  <line class="cls-2" y1="480" x2="1920" y2="480"/>
  <line class="cls-2" y1="520" x2="1920" y2="520"/>
  <line class="cls-2" y1="560" x2="1920" y2="560"/>
  <line class="cls-2" y1="600" x2="1920" y2="600"/>
  <line class="cls-2" y1="640" x2="1920" y2="640"/>
  <line class="cls-2" y1="680" x2="1920" y2="680"/>
  <line class="cls-2" y1="720" x2="1920" y2="720"/>
  <line class="cls-2" y1="760" x2="1920" y2="760"/>
  <line class="cls-2" y1="800" x2="1920" y2="800"/>
  <line class="cls-2" y1="840" x2="1920" y2="840"/>
  <line class="cls-2" y1="880" x2="1920" y2="880"/>
  <line class="cls-2" y1="920" x2="1920" y2="920"/>
  <line class="cls-2" y1="960" x2="1920" y2="960"/>
  <line class="cls-2" y1="1000" x2="1920" y2="1000"/>
  <line class="cls-2" y1="1040" x2="1920" y2="1040"/>
  <line class="cls-2" y1="1080" x2="1920" y2="1080"/>
</svg>